<svg version="1.2" xmlns="http://www.w3.org/2000/svg" viewBox="0 0 400 300" width="400" height="300">
	<title>VectorWiki-sL2ij__proton-calendar-svg</title>
	<defs>
		<radialGradient id="g1" cx="263" cy="-141" r="497.3" gradientUnits="userSpaceOnUse">
			<stop offset=".6" stop-color="#07b9ff" stop-opacity="0"/>
			<stop offset="1" stop-color="#07b9ff"/>
		</radialGradient>
		<linearGradient id="g2" x1="318.3" y1="202.8" x2="100.8" y2="-97.3" gradientUnits="userSpaceOnUse">
			<stop offset="0" stop-color="#bfe8ff"/>
			<stop offset=".3" stop-color="#bfacff"/>
			<stop offset="1" stop-color="#7348ff"/>
		</linearGradient>
	</defs>
	<style>
		.s0 { fill: #6d49ff } 
		.s1 { fill: url(#g1) } 
		.s2 { fill: url(#g2) } 
		.s3 { fill: #b8d8ff } 
		.s4 { fill: #7348ff } 
	</style>
	<path id="Layer" fill-rule="evenodd" class="s0" d="m338 6c19.9 0 36 16.1 36 36v125.2h-88c-22.4 0-40.5 18.1-40.5 40.5v86.3h-183.5c-19.9 0-36-16.1-36-36v-216c0-19.9 16.1-36 36-36z"/>
	<path id="Layer" fill-rule="evenodd" class="s1" d="m26 42c0-19.9 16.1-36 36-36h276c19.9 0 36 16.1 36 36v125.2h-88c-22.4 0-40.5 18.1-40.5 40.5v86.3h-183.5c-19.9 0-36-16.1-36-36z"/>
	<path id="Layer" fill-rule="evenodd" class="s2" d="m26 42c0-19.9 16.1-36 36-36h276c19.9 0 36 16.1 36 36v125.2h-74v-90.2c0-15.5-12.5-28-28-28h-246z"/>
	<path id="Layer" fill-rule="evenodd" class="s3" d="m256 180.4c-6.5 7.2-10.5 16.8-10.5 27.3v86.2h-61.5v-16.7c0-8.6 3-16.8 8.6-23.4l63.4-74.4z"/>
	<path id="Layer" class="s4" d="m281 248.2h12.7c0.5 2.2 1.8 4.2 3.6 5.5 1.8 1.4 4 2 6.3 1.9 5.7 0 9.5-3.2 9.5-7.8 0-4.6-3.9-7.2-11.7-7.2h-5v-10.4h4.4c7.5 0 10.6-2.8 10.6-6.9 0-4.1-3.3-7-7.9-7-2.1-0.1-4.1 0.6-5.7 1.9-1.6 1.4-2.5 3.3-2.7 5.3h-12.1c0.4-7.3 6.2-17.7 20.5-17.7 11.5 0 19.5 6.6 19.5 15.8 0 3-0.9 5.9-2.7 8.3-1.7 2.4-4.2 4.2-7 5.1v0.2c3.3 0.6 6.3 2.4 8.4 5 2.1 2.6 3.2 5.9 3.1 9.2 0 10-9.2 16.6-21 16.6-12.9 0.1-21.9-7.1-22.8-17.8z"/>
	<path id="Layer" class="s4" d="m346.7 206.9h9.2v58.3h-11.9v-44.7l-11.5 7.8v-11.8z"/>
</svg>